<?xml version="1.0" encoding="utf-8"?>
<!-- Generator: Adobe Illustrator 24.2.3, SVG Export Plug-In . SVG Version: 6.00 Build 0)  -->
<svg version="1.1" id="fd59ce54-f850-4dfc-bc34-dd7d379d600e"
	 xmlns="http://www.w3.org/2000/svg" xmlns:xlink="http://www.w3.org/1999/xlink" x="0px" y="0px" viewBox="0 0 1333.9 804"
	 style="enable-background:new 0 0 1333.9 804;" xml:space="preserve">
<style type="text/css">
	.st0{fill:#F2F2F2;}
	.st1{fill:#2F2E41;}
	.st2{fill:#249FFD;}
	.st3{fill:none;stroke:#3F3D56;stroke-width:10;stroke-miterlimit:10;}
	.st4{opacity:0.1;enable-background:new    ;}
	.st5{fill:#3F3D56;}
	.st6{fill:#FBBEBE;}
	.st7{fill:#57B894;}
	.st8{fill:none;stroke:#3F3D56;stroke-miterlimit:10;}
	.st9{fill:#FFFFFF;}
	.st10{opacity:0.3;fill:#249FFD;enable-background:new    ;}
</style>
<ellipse class="st0" cx="657.7" cy="658.9" rx="527.5" ry="34.9"/>
<path class="st1" d="M637.5,276.6c-85.9,0-147.7,55.1-147.7,183.8c0,145.8,61.7,184.4,147.7,184.4s151.3-42.3,151.3-184.4
	C788.9,308.5,723.5,276.6,637.5,276.6z M638.1,596.4c-59.5,0-90.6-34.9-90.6-135.9c0-89.1,32.4-136.1,91.9-136.1
	s91.9,30.9,91.9,136.1C731.3,558.9,697.6,596.4,638.1,596.4z"/>
<path class="st2" d="M438.4,543.1h-35.5V438.5c0-11.6-9.4-21-21-21h-8.3c-11.6,0-21,9.4-21,21l0,0v104.6H252.4c-6.6,0-12-5.4-12-12
	c0-1.9,0.5-3.9,1.4-5.6l106.1-200.8c5.4-10.2,1.5-22.9-8.7-28.3c-0.3-0.1-0.6-0.3-0.8-0.4l-6.3-3c-10.1-4.8-22.2-0.8-27.4,9.1
	l-129.4,242c-2.2,4.1-3.4,8.7-3.4,13.4l0,0c0,15.7,12.7,28.4,28.4,28.4l0,0h152.3v66.2c0,13.9,11.2,25.1,25.1,25.1l0,0l0,0
	c13.9,0,25.1-11.2,25.1-25.1l0,0v-66.2h35.5c11.8,0,21.4-9.6,21.4-21.4l0,0C459.9,552.7,450.3,543.1,438.4,543.1L438.4,543.1z"/>
<path class="st2" d="M1096.4,543.1h-35.5V438.5c0-11.6-9.4-21-21-21h-8.3c-11.6,0-21,9.4-21,21l0,0v104.6H910.4c-6.6,0-12-5.4-12-12
	c0-1.9,0.5-3.9,1.4-5.6l106.1-200.8c5.4-10.2,1.5-22.9-8.7-28.3c-0.3-0.1-0.6-0.3-0.8-0.4l-6.3-3c-10.1-4.8-22.2-0.8-27.4,9.1
	l-129.4,242c-2.2,4.1-3.4,8.7-3.4,13.4l0,0c0,15.7,12.7,28.4,28.4,28.4l0,0h152.3v66.2c0,13.9,11.2,25.1,25.1,25.1l0,0l0,0
	c13.9,0,25.1-11.2,25.1-25.1l0,0v-66.2h35.5c11.8,0,21.4-9.6,21.4-21.4l0,0l0,0C1117.9,552.7,1108.3,543.1,1096.4,543.1
	L1096.4,543.1z"/>
<path class="st3" d="M448.2,530.9h-35.5V426.2c0-11.6-9.4-21-21-21l0,0h-8.3c-11.6,0-21,9.4-21,21l0,0v104.6H262.2
	c-6.6,0-12-5.4-12-12c0-1.9,0.5-3.9,1.4-5.6l106.1-200.8c5.4-10.2,1.5-22.9-8.7-28.3c-0.3-0.1-0.6-0.3-0.8-0.4l-6.3-3
	c-10.1-4.8-22.2-0.8-27.4,9.1L185.1,531.9c-2.2,4.1-3.4,8.7-3.4,13.4l0,0c0,15.7,12.7,28.4,28.4,28.4h152.3v66.2
	c0,13.9,11.2,25.1,25.1,25.1l0,0l0,0c13.9,0,25.1-11.2,25.1-25.1l0,0v-66.2h35.5c11.8,0,21.4-9.6,21.4-21.4l0,0
	C469.7,540.5,460.1,530.9,448.2,530.9z"/>
<path class="st3" d="M1114.8,530.9h-35.5V426.2c0-11.6-9.4-21-21-21l0,0h-8.3c-11.6,0-21,9.4-21,21l0,0v104.6H928.8
	c-6.6,0-12-5.4-12-12c0-1.9,0.5-3.9,1.4-5.6l106.1-200.8c5.4-10.2,1.5-22.9-8.7-28.3c-0.3-0.1-0.6-0.3-0.8-0.4l-6.3-3
	c-10.1-4.8-22.2-0.8-27.4,9.1l-129.4,242c-2.2,4.1-3.4,8.7-3.4,13.4l0,0c0,15.7,12.7,28.4,28.4,28.4l0,0H1029v66.2
	c0,13.9,11.2,25.1,25.1,25.1l0,0l0,0c13.9,0,25.1-11.2,25.1-25.1l0,0v-66.2h35.5c11.8,0,21.4-9.6,21.4-21.4l0,0l0,0
	C1136.2,540.5,1126.6,530.9,1114.8,530.9L1114.8,530.9z"/>
<path class="st3" d="M657.1,265.6c-85.9,0-147.7,55.1-147.7,183.8c0,145.8,61.7,184.4,147.7,184.4s151.3-42.3,151.3-184.4
	C808.5,297.4,743.1,265.6,657.1,265.6z M657.7,585.4c-59.5,0-90.6-34.9-90.6-135.9c0-89.1,32.4-136.1,91.9-136.1
	s91.9,30.9,91.9,136.1C750.9,547.9,717.2,585.4,657.7,585.4L657.7,585.4z"/>
<circle class="st1" cx="588.2" cy="127.9" r="12.9"/>
<ellipse class="st1" cx="619.7" cy="156.5" rx="36.2" ry="46.9"/>
<path class="st4" d="M619.7,189.2c-18.1,0-33.1-17.3-35.8-39.8c-0.3,2.4-0.4,4.7-0.4,7.1c0,25.9,16.2,46.9,36.2,46.9
	s36.2-21,36.2-46.9c0-2.4-0.1-4.7-0.4-7.1C652.8,171.9,637.8,189.2,619.7,189.2z"/>
<path class="st5" d="M693.3,293.8c-0.8,3.2-4.1,5.8-7.8,7.5c-7.8,3.8-17.4,4.9-26.8,5.3c-2.4,0.1-4.8,0.1-7.1-0.1
	c-4.6-0.4-8.9-2.4-12.3-5.6c-0.8-0.5-1-1.5-0.5-2.3c0.1-0.2,0.3-0.4,0.5-0.5c5-5.5,13.3-8.8,21.6-11.2c6.3-1.8,17.4-6.6,24.3-5.9
	C692,281.5,694.3,289.8,693.3,293.8z"/>
<path class="st4" d="M693.3,293.8c-0.8,3.2-4.1,5.8-7.8,7.5c-7.8,3.8-17.4,4.9-26.8,5.3c-2.4,0.1-4.8,0.1-7.1-0.1
	c-4.6-0.4-8.9-2.4-12.3-5.6c-0.8-0.5-1-1.5-0.5-2.3c0.1-0.2,0.3-0.4,0.5-0.5c5-5.5,13.3-8.8,21.6-11.2c6.3-1.8,17.4-6.6,24.3-5.9
	C692,281.5,694.3,289.8,693.3,293.8z"/>
<path class="st5" d="M594.1,269.9c-2.4,4.7-2.8,10.1-1.2,15.1c1.6,4.9,4.7,9.3,8.8,12.5c10.1,8.1,24,9.2,36.9,9.1
	c11.3-0.1,22.7-0.9,33.9-2.3c3.8-0.3,7.5-1.2,11-2.6c4.2-1.8,7.9-5.2,9.4-9.5s0.4-9.7-3.1-12.6c-3.1-2.5-7.5-2.9-11.5-3.1l-23.1-1.4
	c2.3-2.3,5.3-3.6,8.1-5.3c3.7-2.2,6.1-6,8.8-9.3c4.1-4.9,8.6-9.6,13.4-13.8c0.8,4.3,3.5,7.8,6.7,10.8c3.2,3,6.9,5.4,10.2,8.2
	c8.1,6.9,13.9,16.2,22.4,22.5c5.8-1.5,11.3-4.3,16-8l-3.3-6c-0.3-0.6-0.7-1.2-1.2-1.6c-0.9-0.6-2.1-0.3-3.2-0.4
	c-2.9-0.4-4.2-3.8-5.3-6.5c-3.1-7.4-9.1-13.2-14.2-19.4c-3.8-4.6-7.1-9.5-10-14.7c-1.7-3.1-3.3-6.3-5.6-9c-2.3-2.7-5.6-4.8-9.1-4.8
	c-3.1,0-6,1.6-8.7,3.2c-8.2,4.9-16.1,10.2-23.6,16.1c-3.9,3.1-7.9,6.3-12.5,8.2c-1.9,0.8-4,1.3-5.9,2.3c-3.3,1.7-5.8,4.5-8.4,7.1
	C620.3,263.6,607.3,269.5,594.1,269.9z"/>
<path class="st6" d="M642.4,205.7c-0.1,2.8-0.7,5.5-1.7,8c-1.1,2.6-3.2,4.6-5.8,5.6c-1.8,0.5-3.8,0.6-5.6,0.2
	c-1.6-0.2-3.2-0.7-4.6-1.6c-2.2-1.5-3.2-4.1-3.6-6.7c-0.4-2.6-0.2-5.2-0.5-7.9c-0.2-2.1-0.6-4.2-1.2-6.3c-0.2-0.7-0.3-1.4-0.5-2
	c-0.2-0.7-0.3-1.4-0.5-2c-0.1-0.6-0.3-1.3-0.4-1.9c-0.1-0.5-0.2-1.1-0.2-1.6c-0.1-1.6-0.3-3.3-0.8-4.8c-0.5-1-1-2-1.7-2.9
	c-0.3-0.4-0.6-0.8-0.8-1.2c-0.7-1.1-1.1-2.4-1-3.7c0-0.2,0.1-0.4,0.1-0.6c0-0.1,0.1-0.2,0.1-0.2c0.6-0.2,1-0.6,1.2-1.1
	c0.1-0.6,0.1-1.2-0.1-1.8c-0.2-0.8-0.6-1.6-1-2.3c-0.3-0.5-1.2-1.3-1.2-1.9c0-1.1,2.1-2,3-2.4c2.7-1.3,5.6-1.9,8.6-1.7
	c1.9,0.1,4,0.7,5,2.3c0.9,1.4,0.8,3.3,1.2,5c0,0.2,0.1,0.5,0.3,0.7s0.5,0.3,0.7,0.3c0.5,0.1,0.9,0.1,1.4,0.1l0,0
	c0.1,0,0.2,0,0.4-0.1c0.7-0.1,1.4-0.4,2-0.9c0.4-0.1,0.8-0.2,1.2-0.3l0,0c1.6,5,1.8,10.3,3.1,15.4c0.6,2.5,1.6,5,1.7,7.6
	c0,0.1,0,0.2,0,0.3c0,0.8,0,1.7,0,2.5c0,0.4,0.1,0.7,0.1,1.1c0.1,0.6,0.3,1.2,0.5,1.7l0,0c0.1,0.2,0.1,0.4,0.2,0.6
	c0,0.1,0.1,0.3,0.1,0.4l0,0C642.5,202.9,642.6,204.3,642.4,205.7z"/>
<ellipse transform="matrix(0.2238 -0.9746 0.9746 0.2238 330.7898 724.5623)" class="st6" cx="620.3" cy="154.6" rx="18.6" ry="18.6"/>
<path class="st6" d="M738.2,255.7c-0.5-5.1-2.3-9.9-5.2-14.1c0.5,2.9,1,5.7,1.4,8.6c-1.2,0.4-2.6-0.1-3.4-1c-0.8-1-1.4-2.1-1.8-3.3
	c-2.1-5.2-4.9-10.2-8.2-14.7c-11.8-1-23.5-5.9-33.9-11.6c-10.4-5.7-20.1-12.6-30.4-18.5c-1.8-1.1-3.6-2-5.5-2.8
	c-3.2-1.3-6.8-2-9.9-3.5c-0.2-0.1-0.4-0.2-0.6-0.3c-0.7-0.4-1.3-0.8-1.9-1.3c-0.3-0.3-0.6-0.6-0.9-0.9c-1.5-1.8-2.7-3.8-3.6-6
	c-1.6-3.6-2.2-8-3.8-11.6c0.7-0.7,1.6-1.3,2.5-1.8l0,0c0.1-0.1,0.3-0.1,0.4-0.2c0.6-0.3,1.3-0.5,2-0.7c0.4-0.1,0.8-0.2,1.2-0.3l0,0
	c1.8-0.3,3.7-0.2,5.5,0.4c2.6,0.9,4.8,2.6,6.9,4.3c3.5,2.5,6.9,5.2,10.1,8c1.8,1.7,3.4,3.6,5.4,5.2c1.6,1.2,3.3,2.4,5.1,3.4
	c10.4,6.2,20.9,12.4,31.3,18.7c3.5,2.1,7.1,4.2,10.5,6.4c5.2,3.4,10.3,7.1,15.4,10.7c3,2.2,6,4.3,8.9,6.5c1,0.6,1.8,1.4,2.5,2.3
	c0.6,1.1,1,2.2,1.1,3.4C740.2,246,739.8,251,738.2,255.7z"/>
<path class="st2" d="M647,219.7c-1.3,5.6-6.9,9-9.9,13.9c-3.7,6.1-2.2,13.2-0.8,20.3c-2.5,2.2-5.1,4.4-7.6,6.5
	c-1.4,1.2-2.8,2.4-4.3,3.5c-2.2,1.5-4.5,2.8-6.9,3.9c-2.2,1.2-4.5,2.3-6.7,3.5c-2.1,1.2-4.3,2.1-6.6,2.8c-4.4,1.1-9.1,0.3-13.5-1
	c-0.5-0.1-1-0.3-1.5-0.6c-0.3-0.2-0.5-0.4-0.7-0.6c-0.4-0.8-0.6-1.7-0.4-2.5c0.4-7.4,2.2-14.5,4-21.7c1-4.3,2.2-8.5,3.8-12.6
	c1.6-3.5,3.4-6.9,5.4-10.2c2.2-4.1,4.9-8,7.9-11.5c1.5-1.4,2.7-3,3.7-4.7c1.1-2.5,0.7-5.5,0.9-8.2c0.2-2.1,0.7-4.1,1.6-6l0,0
	c0.5-1,1.1-2,1.7-2.9c0.3,0.7,0.6,1.4,0.9,2.1c0.2,0.5,0.4,0.9,0.6,1.4c0.3,0.6,0.5,1.2,0.8,1.8c0.7,1.7,1.5,3.4,2.2,5.1
	c0.8,2.1,1.9,4.2,3.3,5.9c2.1,2.9,6.1,3.6,9.1,1.6c0.9-0.6,1.6-1.4,2.1-2.4c1.1-1.9,1.8-3.9,2.3-6c0.6-2.6,0.7-5.2,0.3-7.8
	c-0.8-5-2.9-10.1-4.4-14.8c-0.6-1.6-1-3.2-1.1-4.9c0-0.2,0-0.4,0.1-0.6v-0.1c0.6-0.3,1.3-0.5,2-0.7c0.4-0.1,0.8-0.2,1.2-0.3
	c1.4,7.4,2.7,14.8,4.1,22.1c0,0.2,0.1,0.3,0.1,0.5c0.2,1.1,0.4,2.1,0.6,3.2c0.2,1,0.4,1.9,0.7,2.9l0,0c0.1,0.3,0.2,0.6,0.3,1l0,0
	c0.2,0.9,0.5,1.7,0.8,2.6C645,209.2,648.2,214.3,647,219.7z"/>
<path class="st5" d="M722.4,298.6c-0.1,1.1,0.2,2.2,0.6,3.1c1.2,2.1,3.9,2.6,6.4,2.8c14.1,1.2,28.3,0.7,42.3-1.3
	c0.8-0.1,1.5-0.3,2.2-0.7c2-1.4,0.8-4.8-1.4-5.9c-2.2-1.1-4.8-0.8-7.1-1.3c-2.4-0.6-4.6-1.6-6.7-2.9c-4.8-2.8-9.6-5.7-14.3-8.7
	c-2.8-1.8-6.1-3.7-9.2-2.6C726.5,284.1,722.3,289.4,722.4,298.6z"/>
<path class="st6" d="M618.5,192.6L618.5,192.6c0,0.1,0,0.3-0.1,0.4c0,0.2-0.1,0.4-0.1,0.6c-0.4,2-0.9,4-1.4,6
	c-1.5,5.5-3.5,10.8-5.5,16.1c-5.4,14.2-10.8,28.4-16.2,42.6c-1.4,3.6-2.7,7.2-4.3,10.7c-0.5,1.2-1,2.3-1.6,3.5
	c-1.9,4.3-3.7,8.7-4.3,13.2c-0.6,3-0.6,6-0.2,9c0.6,3,2.4,5.9,5.2,7c1.4,0.5,3.4,1.3,3,2.7c-0.2,0.8-1.1,1.2-1.9,1.3
	c-2.1,0.3-4.3-0.3-6-1.7c-1.5-1.3-2.7-3.4-4.7-3.6c-1.4-0.2-2.7,0.7-3.9,1.3c-5.2,2.4-11.2,0.7-16.7-1c0.4-2.2,2.6-3.7,4.8-4.1
	c2.2-0.4,4.5-0.1,6.7-0.2c0.7,0,1.4-0.1,2-0.5c0.5-0.5,0.9-1.2,1.1-1.9c1.4-4.3,2.5-8.7,3.2-13.1c0.7-4.7,1-9.4,2.1-14
	c0.8-3.6,2-7.1,3.1-10.6c2.1-7.3,3.7-14.6,5.1-22.1c0.7-3.1,1.1-6.2,1.4-9.4c0.2-2.6,0.1-5.2,0.3-7.8c0.4-3.4,1.1-6.7,2.1-10
	c1-3.6,1.9-7.1,2.9-10.7c1.4-5.3,3-10.7,6.6-14.8c2.5-2.9,6.2-4.6,10-4.8c0.7,0,1.4,0.1,2.1,0.2c0.1,0,0.2,0.1,0.3,0.1
	c0.8,0.2,1.5,0.5,2.2,0.9c1.1-0.7,1.7-0.5,2.4,0.6c0.6,1.2,1,2.5,0.9,3.8C619.4,185.7,619.1,189.2,618.5,192.6z"/>
<path class="st2" d="M619.7,196.8L619.7,196.8l-0.3,0.3l-2.5,2.5l-1.2-5.2l-4.3-17.9c0.7,0,1.4,0.1,2.1,0.2c0-0.2,0.1-0.4,0.1-0.6
	l0.2,0.7l1.4,4.9l2.7,9.3l0.5,1.5l0,0L619.7,196.8z"/>
<path class="st1" d="M635.8,139.8c0,3.3-1.3,6.5-3.7,8.9c-0.4,0.4-0.9,0.8-1.4,1.2c-2.2,1.6-4.8,2.5-7.5,2.5h-15.1
	c-7,0-12.6-5.7-12.6-12.6c0-6.9,5.6-12.6,12.6-12.6h15.1C630.1,127.2,635.7,132.9,635.8,139.8z"/>
<circle class="st1" cx="649.9" cy="127.9" r="12.9"/>
<path class="st4" d="M649.6,114.9c-0.2,0-0.3,0-0.5,0c7.1,0.3,12.7,6.2,12.4,13.4c-0.2,6.8-5.7,12.2-12.4,12.4c0.2,0,0.3,0,0.5,0
	c7.1,0,12.9-5.8,12.9-12.9C662.5,120.7,656.7,114.9,649.6,114.9z"/>
<path class="st4" d="M588.2,114.9c0.2,0,0.3,0,0.5,0c-7.1,0.3-12.7,6.2-12.4,13.4c0.2,6.8,5.7,12.2,12.4,12.4c-0.2,0-0.3,0-0.5,0
	c-7.1,0-12.9-5.8-12.9-12.9C575.4,120.7,581.1,115,588.2,114.9z"/>
<path class="st4" d="M630.7,149.9c-2.2,1.6-4.8,2.5-7.5,2.5h-15.1c-2.7,0-5.4-0.9-7.5-2.5H630.7z"/>
<path class="st6" d="M728.2,243.4c0,0,3.3,9.4,6.2,6.9l-2.4-12.2L728.2,243.4z"/>
<path class="st7" d="M1124,529.1c10.8,3.9,22.7-1.6,26.7-12.4c3.9-10.8-1.6-22.7-12.4-26.7c-3.7-1.3-7.6-1.6-11.5-0.8l0.5,10.7
	l-5.1-9.2c-5,2.3-8.8,6.6-10.7,11.7c-0.7,1.8-1.1,3.7-1.2,5.6C1109.6,517.4,1115.2,526,1124,529.1z"/>
<path class="st8" d="M1149,653.4c-1.8-9.1,6-17.2,13.6-22.4s16.6-10.4,19.2-19.3c3.8-12.8-7.4-24.5-16.1-34.6
	c-6.5-7.5-12-15.7-16.5-24.6c-1.8-3.5-3.5-7.2-4-11.2c-0.7-5.7,1.1-11.3,3-16.7c6.1-18,12.7-35.9,19.6-53.7"/>
<path class="st8" d="M1124.8,526.4c10.8,3.9,22.7-1.6,26.7-12.4c3.9-10.8-1.6-22.7-12.4-26.7c-3.7-1.3-7.6-1.6-11.5-0.8l0.5,10.7
	l-5.1-9.2c-5,2.3-8.8,6.6-10.7,11.7c-0.7,1.8-1.1,3.7-1.2,5.6C1110.5,514.6,1116.1,523.2,1124.8,526.4z"/>
<path class="st7" d="M1146.5,467.2c2.4-6.7,8.1-11.6,15-13.2l1.7,10.2l3.2-10.7c11.5,0.2,20.7,9.6,20.5,21.1s-9.6,20.7-21.1,20.5
	s-20.7-9.6-20.5-21.1C1145.3,471.7,1145.7,469.4,1146.5,467.2z"/>
<path class="st8" d="M1147.6,463.5c2.4-6.7,8.1-11.6,15-13.2l1.7,10.2l3.2-10.7c11.5,0.2,20.7,9.6,20.5,21.1s-9.6,20.7-21.1,20.5
	s-20.7-9.6-20.5-21.1C1146.4,468,1146.9,465.7,1147.6,463.5z"/>
<path class="st7" d="M1162.1,577.2c10.8,3.9,22.7-1.7,26.7-12.5c3.3-9.1-0.1-19.3-8.2-24.6l-2.4,8.2l-1.7-10.3c0,0,0,0-0.1,0
	c-10.8-3.9-22.7,1.7-26.7,12.5C1145.7,561.3,1151.3,573.3,1162.1,577.2L1162.1,577.2L1162.1,577.2z"/>
<path class="st8" d="M1163.1,573.5c10.8,3.9,22.7-1.7,26.7-12.5c3.3-9.1-0.1-19.3-8.2-24.6l-2.4,8.2l-1.7-10.3c0,0,0,0-0.1,0
	c-10.8-3.9-22.7,1.7-26.7,12.5C1146.7,557.6,1152.3,569.6,1163.1,573.5L1163.1,573.5L1163.1,573.5z"/>
<path class="st7" d="M1140.4,611.8c2,11.3,12.8,18.9,24.1,16.9s18.9-12.8,16.9-24.1c-2-11.3-12.8-18.9-24.1-16.9
	c-5.1,0.9-9.7,3.7-12.9,7.8l9.3,14l-12.7-7.4C1140.1,605.2,1139.8,608.5,1140.4,611.8z"/>
<path class="st8" d="M1141.3,609c2,11.3,12.8,18.9,24.1,16.9s18.9-12.8,16.9-24.1c-2-11.3-12.8-18.9-24.1-16.9
	c-5.1,0.9-9.7,3.7-12.9,7.8l9.3,14l-12.7-7.4C1140.9,602.4,1140.7,605.8,1141.3,609z"/>
<path class="st7" d="M126.1,579.8c7.1,2.6,14.9-1.1,17.5-8.2c2.6-7.1-1.1-14.9-8.2-17.5c-2.4-0.9-5-1.1-7.5-0.5l0.3,7l-3.3-6
	c-3.3,1.5-5.8,4.3-7,7.7c-0.4,1.2-0.7,2.4-0.8,3.7C116.7,572.1,120.4,577.8,126.1,579.8z"/>
<path class="st8" d="M142.6,661.5c-1.2-6,3.9-11.3,8.9-14.7s10.9-6.8,12.6-12.7c2.5-8.4-4.9-16.1-10.6-22.8
	c-4.2-4.9-7.9-10.3-10.9-16.1c-1.3-2.3-2.2-4.8-2.6-7.3c-0.5-3.7,0.7-7.4,2-11c4-11.8,8.3-23.6,12.9-35.2"/>
<path class="st8" d="M126.7,578c7.1,2.6,14.9-1.1,17.5-8.2c2.6-7.1-1.1-14.9-8.2-17.5c-2.4-0.9-5-1.1-7.5-0.5l0.3,7l-3.3-6
	c-3.3,1.5-5.8,4.3-7,7.7c-0.4,1.2-0.7,2.4-0.8,3.7C117.3,570.3,120.9,576,126.7,578z"/>
<path class="st7" d="M140.9,539.1c1.6-4.4,5.3-7.6,9.8-8.7l1.1,6.7l2.1-7c7.6,0.1,13.6,6.3,13.5,13.9c-0.1,7.6-6.3,13.6-13.8,13.5
	c-7.5-0.1-13.6-6.3-13.5-13.9C140.1,542.1,140.4,540.6,140.9,539.1z"/>
<path class="st8" d="M141.7,536.7c1.6-4.4,5.3-7.6,9.8-8.7l1.1,6.7l2.1-7c7.6,0.1,13.6,6.3,13.5,13.9c-0.1,7.6-6.3,13.6-13.9,13.5
	c-7.6-0.1-13.6-6.3-13.5-13.9C140.9,539.7,141.1,538.2,141.7,536.7z"/>
<path class="st7" d="M151.2,611.4c7.1,2.6,14.9-1.1,17.5-8.2c2.2-6-0.1-12.7-5.4-16.1l-1.6,5.4l-1.1-6.8l0,0
	c-7.1-2.6-14.9,1.1-17.5,8.2C140.4,601,144,608.8,151.2,611.4C151.1,611.4,151.1,611.4,151.2,611.4z"/>
<path class="st8" d="M151.8,609c7.1,2.6,14.9-1.1,17.5-8.2c2.2-6-0.1-12.7-5.4-16.1l-1.6,5.4l-1.1-6.8l0,0
	c-7.1-2.6-14.9,1.1-17.5,8.2C141,598.6,144.7,606.4,151.8,609L151.8,609L151.8,609z"/>
<path class="st7" d="M136.9,634.1c1.3,7.4,8.4,12.4,15.8,11.1c7.4-1.3,12.4-8.4,11.1-15.8c-1.3-7.4-8.4-12.4-15.8-11.1
	c-3.4,0.6-6.4,2.4-8.5,5.1l6.1,9.2l-8.3-4.9C136.7,629.8,136.5,632,136.9,634.1z"/>
<path class="st8" d="M137.5,632.3c1.3,7.4,8.4,12.4,15.8,11.1c7.4-1.3,12.4-8.4,11.1-15.8c-1.3-7.4-8.4-12.4-15.8-11.1
	c-3.4,0.6-6.4,2.4-8.5,5.1l6.1,9.2l-8.3-4.9C137.2,628,137.1,630.2,137.5,632.3z"/>
<ellipse class="st1" cx="598" cy="428.7" rx="17" ry="22"/>
<ellipse class="st1" cx="690.5" cy="429.2" rx="17" ry="22"/>
<path class="st1" d="M677.5,494.2c0,9.9-13.9,18-31,18s-31-8.1-31-18c0-8.6,10.4-15.8,24.3-17.6c2.2-0.3,4.4-0.4,6.7-0.4
	c3.7,0,7.5,0.4,11.1,1.2C669.3,480,677.5,486.6,677.5,494.2z"/>
<ellipse class="st8" cx="602" cy="423.7" rx="17" ry="22"/>
<ellipse class="st8" cx="694.5" cy="424.2" rx="17" ry="22"/>
<ellipse class="st8" cx="650.5" cy="489.2" rx="31" ry="18"/>
<path class="st9" d="M658,478.9c0,1.3-0.5,2.5-1.3,3.4c-0.8,0.9-2,1.4-3.2,1.4h-10c-2.6-0.1-4.6-2.2-4.5-4.8c0-1,0.3-1.9,0.8-2.7
	c2.2-0.3,4.4-0.5,6.7-0.5c3.7,0,7.5,0.4,11.1,1.3C657.9,477.6,658,478.3,658,478.9z"/>
<circle class="st9" cx="602" cy="417.7" r="5"/>
<circle class="st9" cx="695" cy="417.7" r="5"/>
<circle class="st10" cx="700" cy="464.7" r="5"/>
<circle class="st10" cx="578" cy="464.7" r="5"/>
</svg>
