<?xml version="1.0" encoding="utf-8"?>
<!-- Generator: Adobe Illustrator 25.2.0, SVG Export Plug-In . SVG Version: 6.00 Build 0)  -->
<svg version="1.1" id="图层_1" xmlns="http://www.w3.org/2000/svg" xmlns:xlink="http://www.w3.org/1999/xlink" x="0px" y="0px"
	 viewBox="0 0 200 200" style="enable-background:new 0 0 200 200;" xml:space="preserve">
<style type="text/css">
	.st0{fill:#09BB07;}
</style>
<path class="st0" d="M72.8,121.7c-0.9,0.5-1.9,0.7-3,0.7c-2.6,0-4.6-1.4-5.8-3.4l-0.5-0.9L45.2,78.7C45,78.2,45,77.8,45,77.3
	c0-1.8,1.4-3.2,3.2-3.2c0.7,0,1.4,0.2,2.1,0.7l21.6,15.1c1.6,0.9,3.5,1.6,5.6,1.6c1.2,0,2.3-0.2,3.5-0.7L182,46.4
	c-18.1-21-48-34.8-81.8-34.8C45,11.7,0,48.5,0,94c0,24.7,13.4,47.1,34.5,62.2c1.6,1.1,2.8,3.2,2.8,5.3c0,0.7-0.2,1.4-0.5,2.1
	c-1.6,6.2-4.4,16.3-4.4,16.7c-0.2,0.7-0.5,1.6-0.5,2.5c0,1.8,1.4,3.2,3.2,3.2c0.7,0,1.4-0.2,1.9-0.7l21.8-12.6
	c1.6-0.9,3.5-1.6,5.3-1.6c0.9,0,2.1,0.2,3,0.5c10.2,3,21.3,4.6,32.7,4.6c55.2,0,100.1-36.8,100.1-82.3c0-13.7-4.2-26.8-11.4-38.2
	L73.5,121.2L72.8,121.7L72.8,121.7z"/>
</svg>
